<?xml version="1.0" encoding="utf-8"?>
<!DOCTYPE svg PUBLIC "-//W3C//DTD SVG 1.1//EN" "http://www.w3.org/Graphics/SVG/1.1/DTD/svg11.dtd">
<svg version="1.1" xmlns="http://www.w3.org/2000/svg" width="345px" height="115px">
<style>
  text {
    font-family: "Helvetica Neue", Helvetica, Arial, sans-serif;
    font-size: 8px;
  }
  .label {
    font-style: italic;
    font-size: 6px;
  }
  .component {
    font-weight: bold;
  }
</style>
<g id="Arrows">
	<g>
  <line fill="none" stroke="#1D1D1B" stroke-width="0.5" stroke-miterlimit="10" x1="61.41" y1="55.55" x2="95" y2="55.55"/>
  <polygon points="64.37,57.14 64.54,56.67 61.46,55.55 64.54,54.43 64.37,53.96 60,55.55"/>
	</g>
	<g>
  <line fill="none" stroke="#1D1D1B" stroke-width="0.5" stroke-miterlimit="10" x1="156.41" y1="55.55" x2="190" y2="55.55"/>
  <polygon points="159.37,57.14 159.54,56.67 156.46,55.55 159.54,54.43 159.37,53.96 155,55.55"/>
	</g>
	<g>
  <line fill="none" stroke="#1D1D1B" stroke-width="0.5" stroke-miterlimit="10" x1="251.41" y1="55.55" x2="285" y2="55.55"/>
  <polygon points="254.37,57.14 254.54,56.67 251.46,55.55 254.54,54.43 254.37,53.96 250,55.55"/>
	</g>
	<g>
  <line fill="none" stroke="#1D1D1B" stroke-width="0.5" stroke-miterlimit="10" x1="315" y1="85" x2="315" y2="71.41"/>
  <polygon points="316.59,74.37 316.12,74.54 315,71.46 313.88,74.54 313.41,74.37 315,70"/>
	</g>
	<g>
  <line fill="none" stroke="#1D1D1B" stroke-width="0.5" stroke-miterlimit="10" x1="250" y1="100" x2="283.59" y2="100"/>
  <polygon points="280.63,101.59 280.46,101.12 283.54,100 280.46,98.88 280.63,98.41 285,100"/>
	</g>
	<g>
  <line fill="none" stroke="#878787" stroke-width="0.5" stroke-miterlimit="10" x1="266.14" y1="26.33" x2="285" y2="40"/>
  <polygon fill="#878787" points="267.6,29.35 268.02,29.07 266.18,26.36 269.33,27.26 269.47,26.78 265,25.5"/>
	</g>
	<g>
  <line fill="none" stroke="#878787" stroke-width="0.5" stroke-miterlimit="10" x1="231.14" y1="8.33" x2="285" y2="47.5"/>
  <polygon fill="#878787" points="232.6,11.36 233.01,11.08 231.18,8.36 234.33,9.26 234.47,8.78 230,7.5"/>
	</g>
	<g>
  <line fill="none" stroke="#878787" stroke-width="0.5" stroke-miterlimit="10" x1="269.77" y1="15.88" x2="300" y2="40"/>
  <polygon fill="#878787" points="271.09,18.97 271.52,18.71 269.81,15.91 272.91,16.96 273.07,16.48 268.67,15"/>
	</g>
	<g>
  <line fill="none" stroke="#878787" stroke-width="0.5" stroke-miterlimit="10" x1="308.99" y1="35.81" x2="315" y2="40"/>
  <polygon fill="#878787" points="310.51,38.8 310.92,38.52 309.03,35.84 312.2,36.68 312.33,36.2 307.83,35"/>
	</g>
</g>
<g id="Boxes">
	<rect y="40" fill="#C7D468" width="60" height="30"/>
	<text transform="matrix(1 0 0 1 12.6602 51.8799)" class="component">technical <tspan x="-7.11" y="9.6">specification</tspan></text>
	<text transform="matrix(1 0 0 1 62.1621 62.1523)" class="label">implements</text>
	<text transform="matrix(1 0 0 1 159.1582 62.1523)" class="label">configures</text>
	<text transform="matrix(1 0 0 1 253.8271 62.1523)" class="label">performed <tspan x="8.34" y="7.2">with</tspan></text>
	<text transform="matrix(1 0 0 1 275.7109 79.334)" class="label">generated by</text>
	<text transform="matrix(1 0 0 1 254.6533 107.1523)" class="label">interprets</text>
	<rect x="95" y="40" fill="#C7D468" width="60" height="30"/>
	<text transform="matrix(1 0 0 1 108.5508 51.8799)" class="component">software <tspan x="2.23" y="9.6">module</tspan></text>
	<rect x="190" y="40" fill="#C7D468" width="60" height="30"/>
	<text transform="matrix(1 0 0 1 203.5508 51.8799)"  class="component">software <tspan x="-9.1" y="9.6">configuration</tspan></text>
	<rect x="190" y="85" fill="#C7B8C7" width="60" height="30"/>
	<text transform="matrix(1 0 0 1 203.3203 96.8809)" class="component">research <tspan x="4.89" y="9.6">article</tspan></text>
	<rect x="285" y="85" fill="#95C1C5" width="60" height="30"/>
	<text transform="matrix(1 0 0 1 304.1074 96.8789)" class="component">result <tspan x="2.67" y="9.6">data</tspan></text>
	<rect x="285" y="40" fill="#DCA298" width="60" height="30"/>
	<text transform="matrix(1 0 0 1 293.6582 57.5469)" class="component">experiment</text>
	<rect x="170" fill="#DCE3D2" width="60" height="15"/>
	<text transform="matrix(1 0 0 1 180.2129 10.2124)" fill="#706F6F">benchmark</text>
	<rect x="205" y="20" fill="#DCE3D2" width="60" height="15"/>
	<text transform="matrix(1 0 0 1 219.6562 30.2129)" fill="#706F6F">test data</text>
	<rect x="245" fill="#DCE3D2" width="60" height="15"/>
	<text transform="matrix(1 0 0 1 248.9844 10.2124)" fill="#706F6F">machine setup</text>
	<rect x="320" fill="#DCE3D2" width="15" height="15"/>
	<text transform="matrix(1 0 0 1 323.5 10.2124)" fill="#706F6F">…</text>
	<rect x="280" y="20" fill="#DCE3D2" width="60" height="15"/>
	<text transform="matrix(1 0 0 1 298.4434 30.2129)" fill="#706F6F">scripts</text>
</g>
</svg>
